<svg xmlns="http://www.w3.org/2000/svg" width="16" height="16" fill="none"><path fill="#4F4F4F" d="m7.834 6.893-.097.49.097-.49Zm.8.477a.5.5 0 1 0 .867.5l-.866-.5ZM1.87 10.619l-.307-.394a.5.5 0 0 0 .057.827l.25-.433Zm6.928 4-.25.433a.5.5 0 0 0 .746-.364l-.496-.07ZM4.98 8.43l4.157 2.4.5-.866-4.157-2.4-.5.866Zm4.876 2.142a3.997 3.997 0 0 0 .204-1.85c-.1-.734-.459-1.515-1.316-2.01l-.5.866c.528.305.756.774.826 1.28a3 3 0 0 1-.152 1.365l.938.349Zm-1.112-3.86a2.658 2.658 0 0 0-.812-.31l-.196.98c.163.033.333.095.508.196l.5-.866Zm-.812-.31c-.716-.143-1.378.046-1.9.32a4.04 4.04 0 0 0-1.187.957l.77.637c.178-.215.494-.503.883-.709.388-.204.814-.309 1.239-.224l.195-.98Zm.335.74 1.834-3.175-.866-.5L7.4 6.643l.866.5Zm1.834-3.175c.022-.038.046-.084.06-.112.019-.033.033-.06.047-.082.03-.049.045-.058.041-.055a.081.081 0 0 1-.023.01c-.01.004-.017.003-.013.003.01 0 .073.008.204.083l.5-.866a1.465 1.465 0 0 0-.655-.216.927.927 0 0 0-.595.172c-.15.107-.246.242-.308.34-.031.052-.058.1-.078.138l-.046.085.866.5Zm.316-.153a.766.766 0 0 1 .213.16c.007.009-.01-.012-.009-.05 0-.022.007-.017-.02.037a1.478 1.478 0 0 1-.05.093l-.076.129.866.5c.035-.06.108-.18.16-.283.054-.113.118-.274.12-.467.004-.446-.308-.756-.704-.985l-.5.866Zm.058.369L8.635 7.37l.866.5 1.84-3.187-.866-.5Zm-5.552 3.42-3.361 2.622.615.788 3.36-2.621-.614-.789Zm4.37 7.085.59-4.221-.991-.139-.59 4.222.99.138Zm-7.674-3.636 1.732 1 .5-.866-1.732-1-.5.866Zm1.732 1 1.732 1 .5-.866-1.732-1-.5.866Zm1.732 1 1.732 1 .5-.866-1.732-1-.5.866Zm1.732 1 1.732 1 .5-.866-1.732-1-.5.866Z"/><path stroke="#4F4F4F" stroke-linecap="round" d="m3.768 11.33 1.41-1.11M7.232 13.33l.256-1.777M5.5 12.33l.5-.866"/></svg>